<svg width="391" height="350" viewBox="0 0 391 350" fill="none" xmlns="http://www.w3.org/2000/svg">
<g opacity="0.7">
<path d="M209.259 146.309C273.01 165.175 326.832 187.871 353.904 205.957C355.181 204.643 356.507 203.378 357.895 202.139C325.927 179.74 272.737 155.68 210.387 137.235C150.404 119.485 94.6984 110.709 55.8257 111.303C56.1232 113.411 56.4207 115.53 56.7058 117.638C89.4551 117.464 146.314 127.691 209.271 146.321L209.259 146.309Z" stroke="url(#paint0_linear_460_4489)" stroke-miterlimit="10"/>
<path d="M278.635 261.965C326.796 213.804 326.796 135.72 278.635 87.5585C230.474 39.3974 152.389 39.3974 104.228 87.5585C56.0671 135.72 56.0671 213.804 104.228 261.965C152.389 310.127 230.474 310.127 278.635 261.965Z" stroke="url(#paint1_linear_460_4489)" stroke-miterlimit="10"/>
<path d="M230.803 129.153C260.515 122.769 284.612 142.243 311.697 147.399C309.639 138.363 306.59 129.661 302.635 121.455C299.214 119.658 295.991 117.352 293.116 114.663C283.868 108.787 272.762 103.94 262.399 107.138C229.873 116.336 199.119 135.462 165.205 117.588C147.615 107.721 124.609 91.8173 103.598 88.2102C91.2524 100.717 81.5218 115.902 75.3983 132.921C109.412 117.129 157.581 134.954 196.405 139.355C208.366 141.326 218.99 131.917 230.79 129.141L230.803 129.153Z" stroke="url(#paint2_linear_460_4489)" stroke-miterlimit="10"/>
<path d="M207.697 191.33C215.928 195.334 226.018 198.321 232.476 192.384C254.131 169.985 286.67 164.828 314.709 172.327C314.635 168.299 314.362 164.307 313.903 160.366C313.048 159.981 312.18 159.597 311.288 159.25C281.86 147.4 252.222 157.453 225.634 173.108C220.031 176.158 212.395 175.463 207.053 172.315C163.011 151.354 100.19 144.896 68.3206 181.748C69.4486 202.114 75.6092 221.327 85.6373 238.062C84.658 214.163 95.8389 190.673 116.912 180.149C144.938 164.915 179.559 175.166 207.71 191.33H207.697Z" stroke="url(#paint3_linear_460_4489)" stroke-miterlimit="10"/>
<path d="M202.925 260.498C185.62 255.378 168.477 255.007 150.479 257.523C138.381 260.002 128.315 266.758 120.853 275.819C123.617 277.753 126.481 279.575 129.406 281.285C150.652 269.918 179.249 276.463 198.289 292.057C200.272 293.743 202.007 295.565 203.557 297.474C218.32 296.024 232.402 291.946 245.281 285.673C232.674 274.43 217.192 265.493 202.925 260.485V260.498Z" stroke="url(#paint4_linear_460_4489)" stroke-miterlimit="10"/>
<path d="M311.932 200.837C277.187 191.342 247.909 218.948 213.585 224.439C188.967 228.133 169.568 203.577 143.079 208.287C117.011 212.452 104.181 234.665 101.59 259.196C103.227 260.932 104.925 262.605 106.66 264.254C114.098 240.181 128.266 217.906 158.251 220.621C184.046 223.546 195.971 252.168 219.3 252.8C240.521 251.796 263.961 250.42 282.703 257.61C296.921 241.954 307.247 222.567 311.92 200.85L311.932 200.837Z" stroke="url(#paint5_linear_460_4489)" stroke-miterlimit="10"/>
<path d="M250.983 92.7847C257.292 88.3843 262.796 83.2525 267.06 77.3398C261.482 73.0013 255.52 69.1214 249.223 65.7746C238.649 76.0134 223.7 82.6079 209.333 85.1614C182.794 88.8677 162.614 74.0053 141.12 62.1675C138.988 63.1219 136.893 64.1508 134.823 65.2168C135.356 65.6754 135.877 66.1713 136.373 66.7043C166.023 99.0074 210.895 116.981 250.995 92.7847H250.983Z" stroke="url(#paint6_linear_460_4489)" stroke-miterlimit="10"/>
<g style="mix-blend-mode:multiply" opacity="0.44">
<path d="M314.3 185.33C317.895 143.495 300.156 104.771 270.134 79.8433C284.265 101.932 291.517 128.657 289.099 156.795C283.261 224.649 223.514 274.926 155.66 269.088C129.629 266.844 106.214 256.655 87.5338 241.148C107.478 272.311 141.145 294.214 180.861 297.622C248.714 303.461 308.461 253.184 314.3 185.33Z" stroke="url(#paint7_linear_460_4489)" stroke-miterlimit="10"/>
</g>
<g style="mix-blend-mode:color-dodge" opacity="0.12">
<path d="M275.726 184C290.453 134.22 260.099 81.354 207.93 65.9205C155.76 50.487 101.53 78.3303 86.8033 128.11C72.0767 177.89 102.43 230.756 154.6 246.19C206.769 261.624 261 233.78 275.726 184Z" stroke="url(#paint8_linear_460_4489)" stroke-miterlimit="10"/>
</g>
<path d="M56.6934 117.625C39.9345 117.712 29.4726 120.513 27.762 126.315C22.6921 143.445 95.7397 180.161 190.901 208.312C286.075 236.475 367.341 245.424 372.411 228.306C374.084 222.654 367.229 214.869 353.892 205.957C355.168 204.643 356.507 203.366 357.883 202.139L357.895 202.114C380.852 218.204 392.863 233.425 389.417 245.077C381.162 272.955 287.637 269.856 180.514 238.161C73.3903 206.465 -6.75992 158.171 1.48318 130.294C5.10271 118.034 25.258 111.762 55.8133 111.291" stroke="url(#paint9_linear_460_4489)" stroke-miterlimit="10"/>
</g>
<defs>
<linearGradient id="paint0_linear_460_4489" x1="206.86" y1="111.275" x2="206.86" y2="205.957" gradientUnits="userSpaceOnUse">
<stop stop-color="#C183FF"/>
<stop offset="1" stop-color="#C183FF" stop-opacity="0"/>
</linearGradient>
<linearGradient id="paint1_linear_460_4489" x1="104.228" y1="87.5585" x2="278.635" y2="261.965" gradientUnits="userSpaceOnUse">
<stop stop-color="#C183FF"/>
<stop offset="1" stop-color="#C183FF" stop-opacity="0"/>
</linearGradient>
<linearGradient id="paint2_linear_460_4489" x1="193.547" y1="88.2102" x2="193.547" y2="147.399" gradientUnits="userSpaceOnUse">
<stop stop-color="#C183FF"/>
<stop offset="1" stop-color="#C183FF" stop-opacity="0"/>
</linearGradient>
<linearGradient id="paint3_linear_460_4489" x1="191.515" y1="154.057" x2="191.515" y2="238.062" gradientUnits="userSpaceOnUse">
<stop stop-color="#C183FF"/>
<stop offset="1" stop-color="#C183FF" stop-opacity="0"/>
</linearGradient>
<linearGradient id="paint4_linear_460_4489" x1="183.067" y1="256.007" x2="183.067" y2="297.474" gradientUnits="userSpaceOnUse">
<stop stop-color="#C183FF"/>
<stop offset="1" stop-color="#C183FF" stop-opacity="0"/>
</linearGradient>
<linearGradient id="paint5_linear_460_4489" x1="206.761" y1="198.867" x2="206.761" y2="264.254" gradientUnits="userSpaceOnUse">
<stop stop-color="#C183FF"/>
<stop offset="1" stop-color="#C183FF" stop-opacity="0"/>
</linearGradient>
<linearGradient id="paint6_linear_460_4489" x1="200.942" y1="62.1675" x2="200.942" y2="103.971" gradientUnits="userSpaceOnUse">
<stop stop-color="#C183FF"/>
<stop offset="1" stop-color="#C183FF" stop-opacity="0"/>
</linearGradient>
<linearGradient id="paint7_linear_460_4489" x1="201.147" y1="79.8433" x2="201.147" y2="298.084" gradientUnits="userSpaceOnUse">
<stop stop-color="#C183FF"/>
<stop offset="1" stop-color="#C183FF" stop-opacity="0"/>
</linearGradient>
<linearGradient id="paint8_linear_460_4489" x1="86.8033" y1="128.11" x2="275.726" y2="184" gradientUnits="userSpaceOnUse">
<stop stop-color="#C183FF"/>
<stop offset="1" stop-color="#C183FF" stop-opacity="0"/>
</linearGradient>
<linearGradient id="paint9_linear_460_4489" x1="195.45" y1="111.291" x2="195.45" y2="264.117" gradientUnits="userSpaceOnUse">
<stop stop-color="#C183FF"/>
<stop offset="1" stop-color="#C183FF" stop-opacity="0"/>
</linearGradient>
</defs>
</svg>
